<?xml version="1.0" standalone="no"?><!DOCTYPE svg PUBLIC "-//W3C//DTD SVG 1.1//EN" "http://www.w3.org/Graphics/SVG/1.1/DTD/svg11.dtd"><svg t="1726240412630" class="icon" viewBox="0 0 1280 1024" version="1.1" xmlns="http://www.w3.org/2000/svg" p-id="8954" xmlns:xlink="http://www.w3.org/1999/xlink" width="250" height="200"><path d="M571.349333 490.666667c0 35.413333 28.586667 64 63.573333 64 34.986667 0 63.573333-28.586667 63.573333-64s-28.586667-64-63.573333-64C599.936 426.666667 571.349333 455.253333 571.349333 490.666667zM536.789333 680.533333l-5.12 318.72c0 0 8.533333 24.746667 33.28 24.746667s49.066667-17.066667 49.066667-17.066667l0-163.413333 52.053333 0-9.813333 158.293333c0 0 3.413333 22.186667 27.733333 22.186667 24.746667 0 49.493333-24.32 49.493333-24.32L733.482667 669.866667c35.413333-14.506667 124.970667-93.994667 129.237333-113.194667-18.346667 76.373333-34.944 174.634667-34.944 174.634667s6.4 33.706667 37.12 36.693333c31.146667 2.986667 43.52 2.986667 43.52 2.986667l0 177.066667c0 36.266667 31.146667 75.946667 68.266667 75.946667l74.24 0c37.12 0 74.24-42.666667 74.24-79.36L1125.162667 768l37.12 0c37.12 0 37.12-36.693333 37.12-36.693333s-53.76-204.8-34.986667-143.786667c18.346667 61.013333 144.213333 107.946667 72.106667-75.52-33.706667-85.333333-46.634667-142.122667-74.24-183.04C1139.157333 294.656 1088.042667 256 1013.802667 256s-129.28 36.437333-148.906667 72.96c-31.104 57.856-27.562667 111.829333-49.749333 147.498667-19.413333 31.274667-57.770667 144-180.224 138.794667-55.424-2.346667-105.856-13.482667-124.16-51.2-33.365333-68.736-59.306667-165.546667-66.133333-198.4C436.949333 329.813333 406.229333 256 330.282667 256l-152.32 0c-76.373333 0-114.346667 72.96-114.346667 109.653333 0 36.693333-42.24 189.013333-42.24 225.706667 0 23.04 55.04 46.08 80.64 46.08 15.786667 0 31.573333-170.24 45.226667-170.24l3.413333 475.733333c0 36.693333 27.306667 81.066667 65.28 81.066667l76.373333 0c37.973333 0 64.426667-37.546667 64.426667-74.24L356.736 456.96c8.106667 0 45.397333 104.106667 69.973333 140.373333C467.370667 657.322667 528.256 676.266667 536.789333 680.533333zM1121.749333 106.666667c0-58.88-49.493333-106.666667-110.08-106.666667-61.013333 0-110.08 47.786667-110.08 106.666667s49.066667 106.666667 110.08 106.666667C1072.256 213.333333 1121.749333 165.546667 1121.749333 106.666667zM374.229333 106.666667c0-58.88-50.773333-106.666667-113.066667-106.666667-62.293333 0-112.64 47.786667-112.64 106.666667S198.869333 213.333333 261.162667 213.333333C323.456 213.333333 374.229333 165.546667 374.229333 106.666667z" fill="#323232" p-id="8955"></path></svg>