<?xml version="1.0" standalone="no"?><!DOCTYPE svg PUBLIC "-//W3C//DTD SVG 1.1//EN" "http://www.w3.org/Graphics/SVG/1.1/DTD/svg11.dtd"><svg t="1726240459708" class="icon" viewBox="0 0 1024 1024" version="1.1" xmlns="http://www.w3.org/2000/svg" p-id="16010" xmlns:xlink="http://www.w3.org/1999/xlink" width="200" height="200"><path d="M909.184 568.992l0-200.336c0-28.432 23.264-51.552 51.856-51.552 28.496 0 51.536 23.12 51.536 51.552l0 274.32c0 37.936-13.632 74.576-38.128 103.184l-171.056 181.664c-16.976 15.984-21.136 30.128-21.136 51.568l0 33.072-186.192 0-0.208-78.688c0-29.968-2.448-70.016 35.056-109.312l217.056-217.952c7.728-7.456 17.872-11.536 28.624-11.536 22.704 0 41.184 18.432 41.184 41.104 0 9.808-3.472 19.312-9.792 26.784l-104.688 112.144c-6.784 7.952-18.272 22.944-23.968 41.312-3.072 9.536-3.952 18.832-4.128 29.504l33.696 0c0.128-7.6 0.704-13.712 2.512-19.376 3.296-10.592 9.856-20.128 14.8-26.24l106.272-116.64c13.36-13.472 20.688-30.912 20.688-49.248 0-27.536-16.56-52.864-43.952-65.344z" p-id="16011"></path><path d="M124.784 568.992l0-200.336c0-28.432-23.264-51.552-51.856-51.552-28.48 0-51.536 23.12-51.536 51.552l0 274.32c0 37.936 13.648 74.576 38.144 103.184l171.072 181.664c16.96 15.984 21.136 30.128 21.136 51.568l0 33.072 186.192 0 0.208-78.688c0-29.968 2.448-70.016-35.056-109.312l-217.056-217.952c-7.728-7.456-17.872-11.536-28.624-11.536-22.704 0-41.184 18.432-41.184 41.104 0 9.808 3.472 19.312 9.792 26.784l104.704 112.144c6.784 7.952 18.272 22.944 23.968 41.312 3.088 9.536 3.952 18.832 4.128 29.504l-33.696 0c-0.128-7.6-0.688-13.712-2.528-19.376-3.28-10.592-9.856-20.128-14.8-26.24l-106.272-116.624c-13.36-13.472-20.688-30.928-20.688-49.248 0-27.552 16.56-52.88 43.952-65.36z" p-id="16012"></path><path d="M536.576 97.968c24.432 0 44.192-19.808 44.192-44.224 0-24.352-19.776-44.192-44.192-44.192-24.384 0-44.16 19.84-44.16 44.192 0 24.416 19.76 44.224 44.16 44.224z" p-id="16013"></path><path d="M296.784 98.208c-24.768 0-44.832-19.872-44.832-44.496 0-24.56 20.048-44.48 44.832-44.48 24.768 0 44.896 19.904 44.896 44.48 0 24.624-20.128 44.496-44.896 44.496z" p-id="16014"></path><path d="M756.176 268.832c17.104 0 30.992-13.888 30.992-31.008 0-17.104-13.888-31.008-30.992-31.008-17.152 0-31.04 13.888-31.04 31.008 0 17.104 13.888 31.008 31.04 31.008z" p-id="16015"></path><path d="M801.072 284.128c-10.912 0-73.056 0-83.632 0-0.384 0-27.984-2.512-27.984-2.512l-35.024-122.08c-14.096-49.152-55.312-47.648-55.312-47.648l-113.376 0c0 0-41.184-1.504-55.28 47.648l-17.296 60.112-17.248-60.112c-14.176-49.152-55.28-47.648-55.28-47.648l-87.728 0c0 0-41.216-1.504-55.312 47.648l-35.312 123.024c-3.36 11.52 2.944 20.256 13.024 23.168 10.048 2.864 20.336-2.208 22.912-11.376l34.4-119.92 16.752-0.032-50.208 207.632 44.368 0 0 147.488c0 12.144 9.792 22.032 21.968 22.032 12.144 0 22.08-9.888 22.08-22.032l0-147.488 18.608 0 0 147.488c0 12.144 9.808 22.032 21.952 22.032 12.208 0 22.112-9.888 22.112-22.032l0-147.488 43.6 0-49.68-207.632 16.688 0.032 34.016 118.656c0.56 2.032 1.472 3.888 2.656 5.488 3.328 5.04 9.136 7.824 15.6 7.616 6.464 0.208 12.24-2.56 15.568-7.52 1.392-1.792 2.336-3.856 2.896-6.128l33.84-118.128 15.424-0.032c0 0 0 329.68 0 350.848 0 14.336 11.728 25.92 26.032 25.92 14.32 0 25.92-11.584 25.92-25.92 0-21.168 0-199.616 0-199.616l19.168 0c0 0 0 178.448 0 199.616 0 14.336 11.616 25.92 25.888 25.92 14.352 0 26.112-11.584 26.112-25.92 0-21.168 0-350.848 0-350.848l16.768 0.032 32.928 119.92c1.792 5.904 6.72 9.808 12.624 11.312 0.256 0.064 0.384 0.176 0.592 0.24 5.248 1.184 29.44 8.048 47.2 13.12 0 32.368 0 204.096 0 217.6 0 10.048 8.224 18.192 18.272 18.192 10.048 0 18.208-8.144 18.208-18.192 0-14.912 0-108.704 0-108.704l14.272 0c0 0 0 93.808 0 108.704 0 10.048 8.144 18.192 18.192 18.192s18.304-8.144 18.304-18.192c0-14.912 0-203.264 0-203.264l14 0c0 0 0 60.176 0 68.864 0 7.568 6.128 13.648 13.568 13.648 7.488 0 13.408-6.096 13.408-13.648 0-7.456 0-67.152 0-78.336 0.032-21.936-19.28-39.744-41.216-39.744z" p-id="16016"></path></svg>